#!OML:ASF X:\für Bonn\!DataBase\2005_08_11_Bastian_Final\c3d\Bastian.ASF
:FULLY-SPECIFIED
:DEGREES
186
root 1.20607 13.8908 18.4359 -557.995 -16.6503 -175.73
lowerback 71.0384 1.79527 10.3427
upperback 21.9969 -7.40604 0.944251
thorax 4.17646 -8.56857 -0.919323
lowerneck -12.5031 -8.87311 -8.27398
upperneck -25.2291 -11.5951 23.1798
head -3.36258 -8.44963 8.70712
rclavicle -3.18055e-015 -3.57812e-015
rhumerus 3.8979 29.482 -69.9132
rradius 45.6182
rwrist -12.3141
rhand -17.6615 5.39912
rfingers 7.12502
rthumb 8.59702 -24.4059
lclavicle -3.18055e-015 -3.57812e-015
lhumerus -1.47709 -26.2523 59.9879
lradius 32.3436
lwrist 29.8309
lhand -17.2929 -10.0237
lfingers 7.12502
lthumb 8.95268 19.7664
rfemur -39.6958 -9.82391 24.0573
rtibia 82.538
rfoot -22.3561 -6.9772
rtoes -18.0741
lfemur -41.9289 3.91464 -20.6073
ltibia 75.0199
lfoot -11.7531 -9.1655
ltoes -7.11985
187
root 1.2054 13.7461 18.4368 -558.197 -16.677 -175.693
lowerback 71.4837 1.823 10.3548
upperback 22.0401 -7.49751 0.919417
thorax 4.26692 -8.65331 -0.924303
lowerneck -12.3802 -8.80541 -8.24322
upperneck -25.4699 -11.4884 23.3752
head -3.45412 -8.45641 8.80469
rclavicle 3.18055e-015 3.18055e-015
rhumerus 3.93538 30.0459 -69.8016
rradius 45.4869
rwrist -12.233
rhand -17.7026 5.28287
rfingers 7.12502
rthumb 8.55734 -24.5237
lclavicle 3.18055e-015 3.18055e-015
lhumerus -0.554213 -26.6232 58.8192
lradius 32.2758
lwrist 30.1735
lhand -17.7307 -9.87859
lfingers 7.12502
lthumb 8.53022 19.9291
rfemur -40.5908 -9.90801 24.0666
rtibia 83.868
rfoot -22.7699 -6.70662
rtoes -16.7466
lfemur -42.8556 4.07734 -20.6422
ltibia 76.7243
lfoot -12.3225 -9.4483
ltoes -6.77395
188
root 1.20401 13.594 18.4366 -558.424 -16.6838 -175.635
lowerback 71.8649 1.87283 10.3685
upperback 22.1062 -7.57547 0.916568
thorax 4.3834 -8.73706 -0.916565
lowerneck -12.2171 -8.74743 -8.25755
upperneck -25.687 -11.3842 23.5766
head -3.54047 -8.45697 8.91193
rclavicle 3.49861e-014 -1.96797e-014
rhumerus 4.00993 30.6715 -69.6518
rradius 45.3038
rwrist -12.2645
rhand -17.7567 5.16119
rfingers 7.12502
rthumb 8.50513 -24.6475
lclavicle 3.49861e-014 -1.96797e-014
lhumerus 0.411029 -26.8907 57.7243
lradius 32.0561
lwrist 30.4924
lhand -18.2653 -9.71836
lfingers 7.12502
lthumb 8.01425 20.1097
rfemur -41.4672 -10.0071 24.1069
rtibia 85.2779
rfoot -23.2504 -6.47321
rtoes -15.6164
lfemur -43.787 4.2644 -20.661
ltibia 78.4667
lfoot -12.9402 -9.71031
ltoes -6.71739
189
root 1.20353 13.437 18.4379 -558.658 -16.7185 -175.585
lowerback 72.2246 1.9202 10.3778
upperback 22.1774 -7.658 0.921619
thorax 4.50649 -8.82373 -0.898632
lowerneck -12.0468 -8.69416 -8.31855
upperneck -25.8993 -11.2749 23.8307
head -3.61873 -8.45459 9.04504
rclavicle 5.56597e-014 3.81667e-014
rhumerus 4.07324 31.2545 -69.5231
rradius 45.1173
rwrist -12.2834
rhand -17.7357 5.03996
rfingers 7.12502
rthumb 8.52541 -24.7679
lclavicle 5.56597e-014 3.81667e-014
lhumerus 1.42593 -27.1298 56.6155
lradius 31.7653
lwrist 30.8244
lhand -18.8163 -9.47207
lfingers 7.12502
lthumb 7.48248 20.3756
rfemur -42.358 -10.1786 24.1421
rtibia 86.7551
rfoot -23.7188 -6.29615
rtoes -14.6684
lfemur -44.7486 4.44294 -20.6999
ltibia 80.2321
lfoot -13.5121 -9.96315
ltoes -6.51321
190
root 1.20154 13.275 18.4371 -558.912 -16.7542 -175.524
lowerback 72.5434 1.94375 10.4171
upperback 22.2605 -7.74812 0.913348
thorax 4.63988 -8.90746 -0.908047
lowerneck -11.8481 -8.64639 -8.37648
upperneck -26.1001 -11.1702 24.0751
head -3.6987 -8.45186 9.17538
rclavicle 1.59028e-015 -6.16232e-014
rhumerus 4.16528 31.8687 -69.3925
rradius 44.8725
rwrist -12.3858
rhand -17.7267 4.91867
rfingers 7.12502
rthumb 8.53408 -24.8889
lclavicle 1.59028e-015 -6.16232e-014
lhumerus 2.37658 -27.1989 55.5715
lradius 31.4387
lwrist 31.0048
lhand -19.3628 -9.25435
lfingers 7.12502
lthumb 6.95492 20.6114
rfemur -43.2133 -10.4149 24.1739
rtibia 88.2853
rfoot -24.2099 -6.13468
rtoes -13.7008
lfemur -45.6994 4.62126 -20.7382
ltibia 82.0203
lfoot -14.103 -10.2295
ltoes -6.07951
191
root 1.1994 13.1094 18.4375 -559.174 -16.774 -175.46
lowerback 72.8401 1.97145 10.4537
upperback 22.3423 -7.83196 0.895296
thorax 4.7686 -8.98555 -0.929785
lowerneck -11.63 -8.59223 -8.41705
upperneck -26.2873 -11.0578 24.3029
head -3.78206 -8.44368 9.29889
rclavicle 4.77083e-015 -2.26615e-014
rhumerus 4.23812 32.5033 -69.2725
rradius 44.6327
rwrist -12.5769
rhand -17.7036 4.81847
rfingers 7.12502
rthumb 8.55637 -24.9882
lclavicle 4.77083e-015 -2.26615e-014
lhumerus 3.32671 -27.1303 54.5896
lradius 31.0231
lwrist 31.1554
lhand -19.8595 -8.96302
lfingers 7.12502
lthumb 6.47544 20.918
rfemur -44.0822 -10.667 24.2212
rtibia 89.8529
rfoot -24.688 -6.05288
rtoes -13.0074
lfemur -46.6678 4.83115 -20.7764
ltibia 83.8099
lfoot -14.6515 -10.4846
ltoes -5.76441
192
root 1.1976 12.9402 18.4366 -559.446 -16.8052 -175.374
lowerback 73.0979 2.01369 10.4953
upperback 22.4398 -7.90555 0.924292
thorax 4.92061 -9.06859 -0.909498
lowerneck -11.4445 -8.57148 -8.54645
upperneck -26.4484 -10.9826 24.5497
head -3.83842 -8.44371 9.43596
rclavicle 9.85972e-014 -3.37934e-014
rhumerus 4.33255 33.1687 -69.0661
rradius 44.4184
rwrist -12.7676
rhand -17.6692 4.67667
rfingers 7.12502
rthumb 8.58956 -25.1286
lclavicle 9.85972e-014 -3.37934e-014
lhumerus 4.27492 -26.8364 53.7534
lradius 30.5198
lwrist 31.1125
lhand -20.2906 -8.67668
lfingers 7.12502
lthumb 6.05931 21.2167
rfemur -44.9496 -11.0058 24.2948
rtibia 91.4604
rfoot -25.1545 -5.9987
rtoes -12.5084
lfemur -47.6496 5.06236 -20.7948
ltibia 85.608
lfoot -15.1847 -10.7993
ltoes -5.36101
